<svg width="59" height="45" viewBox="0 0 59 45" fill="none" xmlns="http://www.w3.org/2000/svg">
<path d="M36.2691 0.074585C34.0532 0.074585 31.9129 0.148667 29.8859 0.331754L27.7959 4.89518L27.1789 0.657713C26.8642 0.706395 26.5494 0.757194 26.2347 0.813285C25.089 1.0186 24.3335 1.57738 23.6788 2.38699C23.0241 3.1966 22.5583 4.23903 22.1554 5.20209C21.0475 7.85845 20.1661 10.663 19.4611 13.5204C20.2165 14.0601 20.9719 14.6105 21.7148 15.1502L25.58 13.2876L29.8355 16.0498L36.3698 13.9649L44.0499 16.5577L43.1938 18.3251L36.3447 16.018L29.4578 18.2087L25.4037 15.5735L23.5278 16.4731C25.9955 18.304 28.3876 20.1137 30.6413 21.8916L32.4039 21.2143L36.672 22.9182L40.6002 21.5318L43.647 23.9977L42.0858 25.3735L40.0966 23.7754L36.6217 25.0136L32.4669 23.3415C33.3356 24.0506 34.1791 24.7385 34.9975 25.4264L35.2115 25.6169L37.6666 33.6918L36.6846 33.0885L30.0118 33.1309L25.2149 31.2471L19.8766 32.7922L19.1463 30.9931L25.3408 29.194L30.5154 31.2259L33.6252 31.2047L24.7238 25.7333C22.2435 26.2201 19.7633 26.0296 17.4089 25.3417C16.8801 30.0406 16.6661 34.4114 16.5276 37.9038C16.4772 39.0362 16.8675 40.3379 17.4718 41.3433C18.0888 42.3487 18.9449 42.9731 19.3604 43.0472C20.0151 43.1742 21.7525 43.3859 24.1069 43.587L25.6681 39.4595L28.0728 43.8727C30.1754 43.9997 32.4794 44.0844 34.8087 44.1055C38.3591 44.1373 41.9977 44.0103 45.1327 43.6081C47.1219 43.3647 48.8594 42.9731 50.2569 42.5075C48.7713 41.9677 47.5374 41.3857 46.5932 40.7507C45.1956 39.8088 44.3017 38.7081 44.415 37.4805V37.5017C45.0949 27.2996 45.7748 17.5208 48.2299 7.23404L48.2425 7.19171L48.2551 7.14938C48.9224 5.25501 50.5087 2.93096 52.8002 1.24084C51.0501 1.02283 49.1993 0.817518 47.2982 0.641839L44.4906 3.31936L44.2136 0.387844C41.8214 0.214282 39.3789 0.101043 36.9868 0.0788183H36.2691V0.074585ZM54.9657 2.23777C54.374 2.62828 53.8074 3.08759 53.2912 3.585C54.8146 4.45069 55.9855 6.05932 56.0359 7.49862C56.0736 8.3241 55.7967 9.0755 55.0664 9.7634C54.3362 10.4407 53.1023 11.0757 51.0879 11.4355L51.5663 13.2982C53.9081 12.8748 55.633 12.0811 56.7535 11.0334C57.8866 9.98565 58.3525 8.68393 58.3021 7.43512C58.2266 5.39259 56.9046 3.45694 54.9657 2.23777ZM0.202995 2.61029C0.172778 2.78068 0.155151 2.97329 0.155151 3.20506C0.167742 4.0189 0.410734 5.12801 0.889165 6.39798C1.31849 7.53037 1.93038 8.77918 2.69587 10.0809C4.03422 9.51999 5.28821 8.91675 6.27277 8.16536C5.71628 9.48824 4.99486 10.7794 3.93098 12.0282C4.45222 12.7902 5.01752 13.5521 5.62437 14.3035C6.96398 13.7426 8.23308 12.9277 9.34102 11.5414C8.92554 13.2347 8.27463 14.7798 7.04078 15.9651C7.86292 16.8647 8.74047 17.7431 9.65326 18.558C10.7486 17.5737 11.6173 16.3355 12.2595 14.8645C12.7379 16.8223 12.5868 18.6003 11.5418 20.0925C12.549 20.8545 13.594 21.5424 14.6642 22.1139C15.4322 20.6322 15.7847 18.8754 15.7344 16.8541C16.8927 19.3623 17.1571 21.3942 16.943 23.151C19.4863 24.1247 22.0799 24.421 24.6609 23.7966L25.1897 23.659L33.9147 29.014L33.1719 26.6011C23.981 18.8966 11.0886 10.0174 0.202995 2.61029ZM36.3824 8.11244L40.5624 9.57291L44.5032 8.52518L45.183 10.3455L40.4617 11.6049L36.2314 10.1232L32.6054 10.9805L32.001 9.139L36.3824 8.11244ZM49.8918 33.1097C49.8037 33.1097 49.7281 33.1203 49.64 33.1203C49.1993 33.1309 48.7335 33.1732 48.2425 33.2579L48.6706 35.1205C50.2066 34.8771 51.1886 35.0781 51.7552 35.3851C52.3091 35.692 52.5484 36.1047 52.561 36.7079C52.5735 37.6922 51.6796 39.1421 49.6274 40.1474C50.3073 40.4544 51.1257 40.7719 52.0573 41.0682C53.8703 39.8405 54.8398 38.2319 54.8272 36.6868C54.8146 35.5544 54.1725 34.4432 52.989 33.787C52.1455 33.3319 51.1005 33.0991 49.8918 33.1097Z" fill="black"/>
</svg>
