<svg width="134" height="122" viewBox="0 0 134 122" fill="none" xmlns="http://www.w3.org/2000/svg">
<path d="M31.2667 65.0667H26.8V56.9333H31.2667C32.4513 56.9333 33.5874 57.3618 34.4251 58.1244C35.2627 58.8871 35.7333 59.9215 35.7333 61C35.7333 62.0786 35.2627 63.1129 34.4251 63.8756C33.5874 64.6382 32.4513 65.0667 31.2667 65.0667ZM62.5333 81.3333V56.9333H67C68.1846 56.9333 69.3207 57.3618 70.1584 58.1244C70.9961 58.8871 71.4667 59.9215 71.4667 61V77.2667C71.4667 78.3452 70.9961 79.3796 70.1584 80.1423C69.3207 80.9049 68.1846 81.3333 67 81.3333H62.5333Z" fill="#438BFB"/>
<path fill-rule="evenodd" clip-rule="evenodd" d="M8.93335 12.2C8.93335 8.96436 10.3451 5.86124 12.8581 3.5733C15.3711 1.28535 18.7794 0 22.3333 0L95.6492 0L125.067 26.7831V109.8C125.067 113.036 123.655 116.139 121.142 118.427C118.629 120.715 115.221 122 111.667 122H22.3333C18.7794 122 15.3711 120.715 12.8581 118.427C10.3451 116.139 8.93335 113.036 8.93335 109.8V12.2ZM31.2667 48.8H17.8667V89.4667H26.8V73.2H31.2667C34.8206 73.2 38.2289 71.9146 40.7419 69.6267C43.2549 67.3388 44.6667 64.2356 44.6667 61C44.6667 57.7644 43.2549 54.6612 40.7419 52.3733C38.2289 50.0854 34.8206 48.8 31.2667 48.8ZM67 48.8H53.6V89.4667H67C70.5539 89.4667 73.9623 88.1813 76.4753 85.8934C78.9882 83.6054 80.4 80.5023 80.4 77.2667V61C80.4 57.7644 78.9882 54.6612 76.4753 52.3733C73.9623 50.0854 70.5539 48.8 67 48.8ZM89.3334 89.4667V48.8H116.133V56.9333H98.2667V65.0667H107.2V73.2H98.2667V89.4667H89.3334Z" fill="#438BFB"/>
</svg>
