<svg width="124" height="120" viewBox="0 0 124 120" fill="none" xmlns="http://www.w3.org/2000/svg">
<path d="M108.5 40C107.456 40 83.4417 40.145 62 50.04C40.5583 40.145 16.5436 40 15.5 40C14.1297 40 12.8155 40.5268 11.8466 41.4645C10.8777 42.4021 10.3333 43.6739 10.3333 45V94.415C10.3333 95.0859 10.4728 95.7499 10.7436 96.3675C11.0143 96.9852 11.4107 97.5437 11.9091 98.01C12.9166 98.95 14.3891 99.535 15.6756 99.41L16.3318 99.405C19.8606 99.405 38.5278 99.895 59.8145 109.53C59.8971 109.57 59.9902 109.555 60.0728 109.585C60.6876 109.83 61.3335 110 62 110C62.6665 110 63.3123 109.83 63.9323 109.585C64.015 109.555 64.108 109.57 64.1906 109.53C85.4773 99.89 104.144 99.405 107.673 99.405L108.329 99.41C109.559 99.535 111.083 98.95 112.096 98.01C113.098 97.065 113.667 95.765 113.667 94.415V45C113.667 43.6739 113.122 42.4021 112.153 41.4645C111.184 40.5268 109.87 40 108.5 40ZM20.6666 50.245C28.3391 50.8 43.3018 52.645 56.8333 58.705V97.415C41.3333 91.54 27.9516 89.945 20.6666 89.535V50.245ZM103.333 89.535C96.0483 89.945 82.6666 91.54 67.1666 97.415V58.705C80.6982 52.645 95.6608 50.8 103.333 50.245V89.535Z" fill="#DF121E"/>
<path d="M62 40C70.5604 40 77.5 33.2843 77.5 25C77.5 16.7157 70.5604 10 62 10C53.4396 10 46.5 16.7157 46.5 25C46.5 33.2843 53.4396 40 62 40Z" fill="#DF121E"/>
</svg>
